<?xml version="1.0" encoding="utf-8"?>
<!-- Generator: Adobe Illustrator 16.0.0, SVG Export Plug-In . SVG Version: 6.00 Build 0)  -->
<!DOCTYPE svg PUBLIC "-//W3C//DTD SVG 1.1//EN" "http://www.w3.org/Graphics/SVG/1.1/DTD/svg11.dtd">
<svg version="1.1" id="Layer_1" xmlns="http://www.w3.org/2000/svg" xmlns:xlink="http://www.w3.org/1999/xlink" x="0px" y="0px"
	 width="200px" height="75px" viewBox="0 0 200 75" enable-background="new 0 0 200 75" xml:space="preserve">
<g>
	<polygon fill="#B41F24" points="35.74,20.711 37.423,11.293 13.088,11.293 6.08,51.103 30.414,51.103 32.036,41.685 18.011,41.685 
		19.05,35.771 32.097,35.771 33.781,26.353 20.729,26.353 21.715,20.711 	"/>
	<polygon fill="#B41F24" points="39.209,2.042 39.209,0.31 28.76,0.31 20.439,7.376 20.439,9.076 29.338,9.076 	"/>
	<path fill="#B41F24" d="M76.452,28.425c0-10.273-7.411-17.73-17.621-17.73c-10.785,0-21.7,7.939-21.7,23.113
		c0,10.535,7.448,17.894,18.111,17.894c1.923,0,3.85-0.24,5.88-0.731l2.335,3.449h10.351l-5.132-7.233
		C73.625,43.049,76.452,36.25,76.452,28.425z M58.124,20.439c5.18,0,7.497,4.502,7.497,8.964c0,3.515-1.11,6.89-3,9.205
		l-1.654-2.741H50.572l4.432,6.05c-4.855-0.443-7.041-4.757-7.041-9.035C47.963,26.851,51.524,20.439,58.124,20.439z"/>
	<path fill="#B41F24" d="M107.475,11.293l-3.49,19.81c-1.01,5.638-1.963,10.961-8.507,10.961c-3.537,0-5.486-1.891-5.486-5.321
		c0-1.544,0.214-3.625,0.59-5.711l3.496-19.739H83.77l-3.784,21.37c-0.332,1.767-0.499,3.469-0.499,5.059
		c0,9.05,5.581,14.033,15.718,14.033c13.663,0,17.175-9.542,18.809-18.876l3.767-21.585H107.475z"/>
	<polygon fill="#B41F24" points="123.08,11.293 116.07,51.103 126.377,51.103 133.386,11.293 	"/>
	<path fill="#B41F24" d="M151.096,11.293H138.9l-7.009,39.81h10.306l2.447-13.973h4.331c12.391,0,16.806-7.165,16.806-13.87
		C165.781,15.431,160.703,11.293,151.096,11.293z M150.227,27.875h-3.959l1.259-7.274h3.353c3.752,0,4.233,1.798,4.233,3.365
		C155.112,26.377,153.241,27.875,150.227,27.875z"/>
	<polygon fill="#B41F24" points="194.01,20.711 195.693,11.293 171.358,11.293 164.349,51.103 188.685,51.103 190.306,41.685 
		176.281,41.685 177.321,35.771 190.366,35.771 192.051,26.353 178.999,26.353 179.985,20.711 	"/>
</g>
<g>
	<path fill="#B41F24" d="M127.683,64.695l-0.496,2.758h2.342l-0.374,2.218c-0.187,0.146-0.828,0.602-2.135,0.602
		c-2.094,0-3.565-1.451-3.565-3.856c0-3.793,2.528-4.85,4.166-4.85c1.805,0,2.842,0.745,3.505,1.451l2.011-2.612
		c-0.706-0.83-2.427-2.073-5.286-2.073c-4.706,0-8.065,2.923-8.065,8.229c0,3.524,2.095,6.945,6.966,6.945
		c2.468,0,4.167-0.767,5.39-2.053l1.183-6.759H127.683z"/>
	<path fill="#B41F24" d="M141.98,58.478l-9.576,14.801h3.709l1.183-1.886h5.265l0.54,1.886h3.566l-4.417-14.801H141.98z
		 M139.037,68.635l1.907-3.005l0.85,3.005H139.037z"/>
	<polygon fill="#B41F24" points="156.507,66.063 152.175,58.435 151.884,58.435 147.179,73.278 150.662,73.278 152.9,66.354 
		155.74,70.873 156.009,70.873 160.155,66.604 160.114,73.278 163.639,73.278 163.784,58.435 163.493,58.435 	"/>
	<polygon fill="#B41F24" points="176.339,61.688 176.898,58.56 168.089,58.56 165.497,73.278 174.308,73.278 174.846,70.147 
		169.498,70.147 169.975,67.433 174.949,67.433 175.51,64.301 170.534,64.301 170.99,61.688 	"/>
	<path fill="#B41F24" d="M184.107,65.089l-1.471-1.035c-0.622-0.437-1.12-0.788-1.12-1.431c0-0.519,0.539-1.1,1.576-1.1
		c1.098,0,1.846,0.581,2.301,1.1l1.929-2.508c-0.768-1.037-2.467-1.783-4.105-1.783c-3.668,0-5.37,2.26-5.37,4.622
		c0,1.928,1.494,3.069,2.468,3.732l1.016,0.704c0.81,0.56,1.244,1.037,1.244,1.638c0,0.664-0.498,1.286-1.989,1.286
		c-1.244,0-2.468-0.603-3.339-1.515h-0.207l-0.581,3.359c0.479,0.538,2.178,1.348,4.188,1.348c4.146,0,5.598-2.675,5.598-4.789
		C186.243,67.641,185.87,66.333,184.107,65.089z"/>
</g>
<polygon fill="#B41F24" points="4.338,60.923 3.073,68.173 112.928,68.173 114.193,60.923 "/>
</svg>
